<!DOCTYPE svg PUBLIC "-//W3C//DTD SVG 1.1//EN" "http://www.w3.org/Graphics/SVG/1.1/DTD/svg11.dtd">
<!-- Uploaded to: SVG Repo, www.svgrepo.com, Transformed by: SVG Repo Mixer Tools -->
<svg fill="#E86F47" height="64px" width="64px" version="1.1" id="Layer_1" xmlns="http://www.w3.org/2000/svg" xmlns:xlink="http://www.w3.org/1999/xlink" viewBox="0 0 512 512" xml:space="preserve">
<g id="SVGRepo_bgCarrier" stroke-width="0"/>
<g id="SVGRepo_tracerCarrier" stroke-linecap="round" stroke-linejoin="round"/>
<g id="SVGRepo_iconCarrier"> <g> <g> <g> <path d="M442.773,348.629l-58.795-14.677l-2.347-9.451c40.256-7.189,61.099-19.328,62.059-19.904 c3.008-1.771,4.885-4.971,5.12-8.448c0.256-3.499-1.301-6.933-4.011-9.131c-0.299-0.213-27.413-23.104-27.413-101.952 c0-69.845-16.853-105.28-50.091-105.28h-3.563C352.491,69.077,343.147,64,320,64c-7.168,0-16.213,1.899-25.429,5.376 c-3.051,1.152-5.397,3.605-6.4,6.699c-1.003,3.093-0.533,6.464,1.259,9.173c14.144,21.312,21.312,54.869,21.312,99.776 c0,52.459,12.608,75.733,18.048,83.307c0.875,1.237,2.027,2.261,3.328,3.029c8.576,4.971,12.736,12.928,13.035,25.045 c0.235,8.853-5.269,15.829-9.92,20.117c-2.645,2.453-3.883,6.059-3.285,9.6c0.576,3.563,2.944,6.571,6.229,8 c40.768,17.963,67.157,58.475,67.157,103.168c0,5.888,4.779,10.667,10.667,10.667h85.333c5.888,0,10.667-4.821,10.667-10.709 C512,395.285,483.541,358.805,442.773,348.629z"/> <path d="M314.773,348.629l-58.795-14.677l-2.347-9.451c40.256-7.189,61.12-19.328,62.08-19.904 c3.008-1.771,4.885-4.971,5.12-8.448c0.256-3.499-1.301-6.933-4.011-9.131c-0.277-0.213-27.413-23.104-27.413-101.952 c0-69.845-16.853-105.28-50.091-105.28h-3.541C224.491,69.077,215.147,64,192,64c-30.549,0-97.387,30.485-97.387,121.045 c0,78.869-27.136,101.739-27.264,101.845c-2.837,2.133-4.437,5.525-4.245,9.067c0.171,3.563,2.112,6.763,5.141,8.597 c0.939,0.555,21.632,12.779,62.144,19.989l-2.347,9.387l-58.795,14.699C28.48,358.827,0,395.307,0,437.333 C0,443.221,4.779,448,10.667,448h362.667c5.888,0,10.667-4.821,10.667-10.709C384,395.285,355.541,358.805,314.773,348.629z"/> </g> </g> </g> </g>
</svg>